
      <svg data-logo="logo" xmlns="http://www.w3.org/2000/svg" viewBox="0 0 109 41">
        <g id="logogram" transform="translate(109, 41) rotate(180) "><path d="M65.0695 9.35458C62.2351 6.48393 58.87 4.20673 55.1666 2.65316C51.4632 1.09959 47.494 0.299988 43.4854 0.299988C39.4768 0.299988 35.5076 1.09959 31.8041 2.65316C28.1008 4.20673 24.7357 6.48393 21.9012 9.35458L43.4854 31.2141L65.0695 9.35458Z" fill="#FFD200"/><path d="M43.5125 31.2455C46.3469 34.1162 49.7119 36.3932 53.4153 37.9468C57.1187 39.5004 61.088 40.3 65.0966 40.3C69.105 40.3 73.0748 39.5004 76.7781 37.9468C80.4813 36.3932 83.8467 34.1162 86.6809 31.2455L65.0966 9.38593L43.5125 31.2455Z" fill="#06E05E"/><path d="M43.4591 31.2407C40.6246 34.1114 37.2596 36.3885 33.5562 37.942C29.8528 39.4956 25.8836 40.2952 21.875 40.2952C17.8664 40.2952 13.8972 39.4956 10.1937 37.942C6.49037 36.3885 3.12531 34.1114 0.290833 31.2407L21.875 9.38113L43.4591 31.2407Z" fill="#E3073C"/><path d="M65.1229 9.35929C67.957 6.48865 71.3224 4.21155 75.0257 2.65798C78.7289 1.10441 82.6987 0.30481 86.7068 0.30481C90.7159 0.30481 94.6847 1.10441 98.388 2.65798C102.091 4.21155 105.457 6.48865 108.291 9.35929L86.7068 31.2189L65.1229 9.35929Z" fill="#1F84EF"/></g>
        <g id="logotype" transform="translate(109, 20.5)"></g>
        
      </svg>
    